<svg width="32" height="32" viewBox="0 0 32 32" fill="none" xmlns="http://www.w3.org/2000/svg">
  <!-- Background -->
  <rect width="32" height="32" rx="6" fill="#000000"/>
  
  <!-- Filled S using a single path -->
  <path d="M21 5C17 5 14 6.5 14 9.5C14 11.5 15.5 13 18 13.5C20.5 14 22 14.5 22 16.5C22 19.5 19 21.5 16 21.5C13 21.5 10.5 20 10.5 17.5L8.5 17.5C8.5 21.5 12 24.5 16 24.5C20 24.5 23.5 21.5 23.5 17.5C23.5 15 22 13.5 19.5 13C17 12.5 15.5 12 15.5 10.5C15.5 8.5 17.5 7.5 21 7.5C24.5 7.5 26.5 8.5 26.5 10.5L26.5 12.5L28.5 12.5L28.5 10.5C28.5 6.5 25.5 4 21 4Z" 
        fill="#FFD700"/>
</svg>
